<mxfile host="app.diagrams.net" modified="2024-07-18T17:47:21.563Z" agent="Mozilla/5.0 (Windows NT 10.0; Win64; x64) AppleWebKit/537.36 (KHTML, like Gecko) Chrome/126.0.0.0 Safari/537.36 Edg/126.0.0.0" etag="mgpgzGAe-0s8NyzIx-DD" version="24.7.1" type="device" pages="2">
  <diagram name="Página-1" id="3y7hYRaavatbw0mTm7QK">
    <mxGraphModel dx="968" dy="529" grid="1" gridSize="10" guides="1" tooltips="1" connect="1" arrows="1" fold="1" page="1" pageScale="1" pageWidth="827" pageHeight="1169" math="0" shadow="0">
      <root>
        <mxCell id="0" />
        <mxCell id="1" parent="0" />
        <mxCell id="I-j-dEGVNX2yF0F2s1vG-2" value="Registro" style="swimlane;fontStyle=0;childLayout=stackLayout;horizontal=1;startSize=26;fillColor=none;horizontalStack=0;resizeParent=1;resizeParentMax=0;resizeLast=0;collapsible=1;marginBottom=0;whiteSpace=wrap;html=1;" vertex="1" parent="1">
          <mxGeometry x="370" y="310" width="140" height="182" as="geometry" />
        </mxCell>
        <mxCell id="I-j-dEGVNX2yF0F2s1vG-3" value="+ id" style="text;strokeColor=none;fillColor=none;align=left;verticalAlign=top;spacingLeft=4;spacingRight=4;overflow=hidden;rotatable=0;points=[[0,0.5],[1,0.5]];portConstraint=eastwest;whiteSpace=wrap;html=1;" vertex="1" parent="I-j-dEGVNX2yF0F2s1vG-2">
          <mxGeometry y="26" width="140" height="26" as="geometry" />
        </mxCell>
        <mxCell id="I-j-dEGVNX2yF0F2s1vG-4" value="+ id_usuario" style="text;strokeColor=none;fillColor=none;align=left;verticalAlign=top;spacingLeft=4;spacingRight=4;overflow=hidden;rotatable=0;points=[[0,0.5],[1,0.5]];portConstraint=eastwest;whiteSpace=wrap;html=1;" vertex="1" parent="I-j-dEGVNX2yF0F2s1vG-2">
          <mxGeometry y="52" width="140" height="26" as="geometry" />
        </mxCell>
        <mxCell id="I-j-dEGVNX2yF0F2s1vG-6" value="+ tipo_do_registro" style="text;strokeColor=none;fillColor=none;align=left;verticalAlign=top;spacingLeft=4;spacingRight=4;overflow=hidden;rotatable=0;points=[[0,0.5],[1,0.5]];portConstraint=eastwest;whiteSpace=wrap;html=1;" vertex="1" parent="I-j-dEGVNX2yF0F2s1vG-2">
          <mxGeometry y="78" width="140" height="26" as="geometry" />
        </mxCell>
        <mxCell id="I-j-dEGVNX2yF0F2s1vG-7" value="+ descricao" style="text;strokeColor=none;fillColor=none;align=left;verticalAlign=top;spacingLeft=4;spacingRight=4;overflow=hidden;rotatable=0;points=[[0,0.5],[1,0.5]];portConstraint=eastwest;whiteSpace=wrap;html=1;" vertex="1" parent="I-j-dEGVNX2yF0F2s1vG-2">
          <mxGeometry y="104" width="140" height="26" as="geometry" />
        </mxCell>
        <mxCell id="I-j-dEGVNX2yF0F2s1vG-8" value="+ data_registro" style="text;strokeColor=none;fillColor=none;align=left;verticalAlign=top;spacingLeft=4;spacingRight=4;overflow=hidden;rotatable=0;points=[[0,0.5],[1,0.5]];portConstraint=eastwest;whiteSpace=wrap;html=1;" vertex="1" parent="I-j-dEGVNX2yF0F2s1vG-2">
          <mxGeometry y="130" width="140" height="26" as="geometry" />
        </mxCell>
        <mxCell id="I-j-dEGVNX2yF0F2s1vG-5" value="+ localizacao&lt;div&gt;&lt;br&gt;&lt;/div&gt;" style="text;strokeColor=none;fillColor=none;align=left;verticalAlign=top;spacingLeft=4;spacingRight=4;overflow=hidden;rotatable=0;points=[[0,0.5],[1,0.5]];portConstraint=eastwest;whiteSpace=wrap;html=1;" vertex="1" parent="I-j-dEGVNX2yF0F2s1vG-2">
          <mxGeometry y="156" width="140" height="26" as="geometry" />
        </mxCell>
        <mxCell id="I-j-dEGVNX2yF0F2s1vG-9" value="Tipo de Registros" style="swimlane;fontStyle=0;childLayout=stackLayout;horizontal=1;startSize=26;fillColor=none;horizontalStack=0;resizeParent=1;resizeParentMax=0;resizeLast=0;collapsible=1;marginBottom=0;whiteSpace=wrap;html=1;" vertex="1" parent="1">
          <mxGeometry x="555" y="421" width="140" height="104" as="geometry" />
        </mxCell>
        <mxCell id="I-j-dEGVNX2yF0F2s1vG-10" value="+ id" style="text;strokeColor=none;fillColor=none;align=left;verticalAlign=top;spacingLeft=4;spacingRight=4;overflow=hidden;rotatable=0;points=[[0,0.5],[1,0.5]];portConstraint=eastwest;whiteSpace=wrap;html=1;" vertex="1" parent="I-j-dEGVNX2yF0F2s1vG-9">
          <mxGeometry y="26" width="140" height="26" as="geometry" />
        </mxCell>
        <mxCell id="I-j-dEGVNX2yF0F2s1vG-11" value="+ titulo" style="text;strokeColor=none;fillColor=none;align=left;verticalAlign=top;spacingLeft=4;spacingRight=4;overflow=hidden;rotatable=0;points=[[0,0.5],[1,0.5]];portConstraint=eastwest;whiteSpace=wrap;html=1;" vertex="1" parent="I-j-dEGVNX2yF0F2s1vG-9">
          <mxGeometry y="52" width="140" height="26" as="geometry" />
        </mxCell>
        <mxCell id="I-j-dEGVNX2yF0F2s1vG-12" value="+ gravidade" style="text;strokeColor=none;fillColor=none;align=left;verticalAlign=top;spacingLeft=4;spacingRight=4;overflow=hidden;rotatable=0;points=[[0,0.5],[1,0.5]];portConstraint=eastwest;whiteSpace=wrap;html=1;" vertex="1" parent="I-j-dEGVNX2yF0F2s1vG-9">
          <mxGeometry y="78" width="140" height="26" as="geometry" />
        </mxCell>
        <mxCell id="I-j-dEGVNX2yF0F2s1vG-16" style="edgeStyle=orthogonalEdgeStyle;rounded=0;orthogonalLoop=1;jettySize=auto;html=1;exitX=1;exitY=0.5;exitDx=0;exitDy=0;entryX=0.5;entryY=0;entryDx=0;entryDy=0;endArrow=none;endFill=0;" edge="1" parent="1" source="I-j-dEGVNX2yF0F2s1vG-6" target="I-j-dEGVNX2yF0F2s1vG-9">
          <mxGeometry relative="1" as="geometry" />
        </mxCell>
        <mxCell id="I-j-dEGVNX2yF0F2s1vG-17" value="Usuario" style="swimlane;fontStyle=0;childLayout=stackLayout;horizontal=1;startSize=26;fillColor=none;horizontalStack=0;resizeParent=1;resizeParentMax=0;resizeLast=0;collapsible=1;marginBottom=0;whiteSpace=wrap;html=1;" vertex="1" parent="1">
          <mxGeometry x="160" y="336" width="140" height="234" as="geometry" />
        </mxCell>
        <mxCell id="I-j-dEGVNX2yF0F2s1vG-18" value="+ id" style="text;strokeColor=none;fillColor=none;align=left;verticalAlign=top;spacingLeft=4;spacingRight=4;overflow=hidden;rotatable=0;points=[[0,0.5],[1,0.5]];portConstraint=eastwest;whiteSpace=wrap;html=1;" vertex="1" parent="I-j-dEGVNX2yF0F2s1vG-17">
          <mxGeometry y="26" width="140" height="26" as="geometry" />
        </mxCell>
        <mxCell id="I-j-dEGVNX2yF0F2s1vG-19" value="+ nome" style="text;strokeColor=none;fillColor=none;align=left;verticalAlign=top;spacingLeft=4;spacingRight=4;overflow=hidden;rotatable=0;points=[[0,0.5],[1,0.5]];portConstraint=eastwest;whiteSpace=wrap;html=1;" vertex="1" parent="I-j-dEGVNX2yF0F2s1vG-17">
          <mxGeometry y="52" width="140" height="26" as="geometry" />
        </mxCell>
        <mxCell id="I-j-dEGVNX2yF0F2s1vG-20" value="+ email" style="text;strokeColor=none;fillColor=none;align=left;verticalAlign=top;spacingLeft=4;spacingRight=4;overflow=hidden;rotatable=0;points=[[0,0.5],[1,0.5]];portConstraint=eastwest;whiteSpace=wrap;html=1;" vertex="1" parent="I-j-dEGVNX2yF0F2s1vG-17">
          <mxGeometry y="78" width="140" height="26" as="geometry" />
        </mxCell>
        <mxCell id="I-j-dEGVNX2yF0F2s1vG-21" value="+ data_de_cadastro" style="text;strokeColor=none;fillColor=none;align=left;verticalAlign=top;spacingLeft=4;spacingRight=4;overflow=hidden;rotatable=0;points=[[0,0.5],[1,0.5]];portConstraint=eastwest;whiteSpace=wrap;html=1;" vertex="1" parent="I-j-dEGVNX2yF0F2s1vG-17">
          <mxGeometry y="104" width="140" height="26" as="geometry" />
        </mxCell>
        <mxCell id="I-j-dEGVNX2yF0F2s1vG-24" value="+ role" style="text;strokeColor=none;fillColor=none;align=left;verticalAlign=top;spacingLeft=4;spacingRight=4;overflow=hidden;rotatable=0;points=[[0,0.5],[1,0.5]];portConstraint=eastwest;whiteSpace=wrap;html=1;" vertex="1" parent="I-j-dEGVNX2yF0F2s1vG-17">
          <mxGeometry y="130" width="140" height="26" as="geometry" />
        </mxCell>
        <mxCell id="I-j-dEGVNX2yF0F2s1vG-25" value="+ cpf" style="text;strokeColor=none;fillColor=none;align=left;verticalAlign=top;spacingLeft=4;spacingRight=4;overflow=hidden;rotatable=0;points=[[0,0.5],[1,0.5]];portConstraint=eastwest;whiteSpace=wrap;html=1;" vertex="1" parent="I-j-dEGVNX2yF0F2s1vG-17">
          <mxGeometry y="156" width="140" height="26" as="geometry" />
        </mxCell>
        <mxCell id="I-j-dEGVNX2yF0F2s1vG-26" value="+ telefone" style="text;strokeColor=none;fillColor=none;align=left;verticalAlign=top;spacingLeft=4;spacingRight=4;overflow=hidden;rotatable=0;points=[[0,0.5],[1,0.5]];portConstraint=eastwest;whiteSpace=wrap;html=1;" vertex="1" parent="I-j-dEGVNX2yF0F2s1vG-17">
          <mxGeometry y="182" width="140" height="26" as="geometry" />
        </mxCell>
        <mxCell id="I-j-dEGVNX2yF0F2s1vG-22" value="+ voucher" style="text;strokeColor=none;fillColor=none;align=left;verticalAlign=top;spacingLeft=4;spacingRight=4;overflow=hidden;rotatable=0;points=[[0,0.5],[1,0.5]];portConstraint=eastwest;whiteSpace=wrap;html=1;" vertex="1" parent="I-j-dEGVNX2yF0F2s1vG-17">
          <mxGeometry y="208" width="140" height="26" as="geometry" />
        </mxCell>
        <mxCell id="I-j-dEGVNX2yF0F2s1vG-27" style="edgeStyle=orthogonalEdgeStyle;rounded=0;orthogonalLoop=1;jettySize=auto;html=1;exitX=1;exitY=0.5;exitDx=0;exitDy=0;entryX=0;entryY=0.5;entryDx=0;entryDy=0;" edge="1" parent="1" source="I-j-dEGVNX2yF0F2s1vG-18" target="I-j-dEGVNX2yF0F2s1vG-4">
          <mxGeometry relative="1" as="geometry" />
        </mxCell>
      </root>
    </mxGraphModel>
  </diagram>
  <diagram id="P02zQ7VpklQASwxmclb6" name="Página-2">
    <mxGraphModel dx="1162" dy="635" grid="1" gridSize="10" guides="1" tooltips="1" connect="1" arrows="1" fold="1" page="1" pageScale="1" pageWidth="3000" pageHeight="3000" math="0" shadow="0">
      <root>
        <mxCell id="0" />
        <mxCell id="1" parent="0" />
        <mxCell id="ZxdlrJxGSXLD8UGLs_Cl-8" value="" style="rounded=0;whiteSpace=wrap;html=1;" vertex="1" parent="1">
          <mxGeometry x="430" y="680" width="500" height="620" as="geometry" />
        </mxCell>
        <mxCell id="zOF8-4KYtvd2jClDgSth-1" value="Registro" style="swimlane;fontStyle=0;childLayout=stackLayout;horizontal=1;startSize=26;fillColor=none;horizontalStack=0;resizeParent=1;resizeParentMax=0;resizeLast=0;collapsible=1;marginBottom=0;whiteSpace=wrap;html=1;" vertex="1" parent="1">
          <mxGeometry x="810" y="350" width="140" height="182" as="geometry" />
        </mxCell>
        <mxCell id="zOF8-4KYtvd2jClDgSth-2" value="+ id" style="text;strokeColor=none;fillColor=none;align=left;verticalAlign=top;spacingLeft=4;spacingRight=4;overflow=hidden;rotatable=0;points=[[0,0.5],[1,0.5]];portConstraint=eastwest;whiteSpace=wrap;html=1;fontStyle=1" vertex="1" parent="zOF8-4KYtvd2jClDgSth-1">
          <mxGeometry y="26" width="140" height="26" as="geometry" />
        </mxCell>
        <mxCell id="zOF8-4KYtvd2jClDgSth-3" value="+ id_da_visita" style="text;strokeColor=none;fillColor=none;align=left;verticalAlign=top;spacingLeft=4;spacingRight=4;overflow=hidden;rotatable=0;points=[[0,0.5],[1,0.5]];portConstraint=eastwest;whiteSpace=wrap;html=1;fontStyle=1" vertex="1" parent="zOF8-4KYtvd2jClDgSth-1">
          <mxGeometry y="52" width="140" height="26" as="geometry" />
        </mxCell>
        <mxCell id="zOF8-4KYtvd2jClDgSth-4" value="+ tipo_do_registro" style="text;strokeColor=none;fillColor=none;align=left;verticalAlign=top;spacingLeft=4;spacingRight=4;overflow=hidden;rotatable=0;points=[[0,0.5],[1,0.5]];portConstraint=eastwest;whiteSpace=wrap;html=1;" vertex="1" parent="zOF8-4KYtvd2jClDgSth-1">
          <mxGeometry y="78" width="140" height="26" as="geometry" />
        </mxCell>
        <mxCell id="zOF8-4KYtvd2jClDgSth-5" value="+ descricao" style="text;strokeColor=none;fillColor=none;align=left;verticalAlign=top;spacingLeft=4;spacingRight=4;overflow=hidden;rotatable=0;points=[[0,0.5],[1,0.5]];portConstraint=eastwest;whiteSpace=wrap;html=1;" vertex="1" parent="zOF8-4KYtvd2jClDgSth-1">
          <mxGeometry y="104" width="140" height="26" as="geometry" />
        </mxCell>
        <mxCell id="zOF8-4KYtvd2jClDgSth-6" value="+ data_registro" style="text;strokeColor=none;fillColor=none;align=left;verticalAlign=top;spacingLeft=4;spacingRight=4;overflow=hidden;rotatable=0;points=[[0,0.5],[1,0.5]];portConstraint=eastwest;whiteSpace=wrap;html=1;" vertex="1" parent="zOF8-4KYtvd2jClDgSth-1">
          <mxGeometry y="130" width="140" height="26" as="geometry" />
        </mxCell>
        <mxCell id="zOF8-4KYtvd2jClDgSth-7" value="+ localizacao&lt;div&gt;&lt;br&gt;&lt;/div&gt;" style="text;strokeColor=none;fillColor=none;align=left;verticalAlign=top;spacingLeft=4;spacingRight=4;overflow=hidden;rotatable=0;points=[[0,0.5],[1,0.5]];portConstraint=eastwest;whiteSpace=wrap;html=1;" vertex="1" parent="zOF8-4KYtvd2jClDgSth-1">
          <mxGeometry y="156" width="140" height="26" as="geometry" />
        </mxCell>
        <mxCell id="zOF8-4KYtvd2jClDgSth-8" value="Tipo de Registros" style="swimlane;fontStyle=0;childLayout=stackLayout;horizontal=1;startSize=26;fillColor=none;horizontalStack=0;resizeParent=1;resizeParentMax=0;resizeLast=0;collapsible=1;marginBottom=0;whiteSpace=wrap;html=1;" vertex="1" parent="1">
          <mxGeometry x="990" y="461" width="140" height="104" as="geometry" />
        </mxCell>
        <mxCell id="zOF8-4KYtvd2jClDgSth-9" value="+ id" style="text;strokeColor=none;fillColor=none;align=left;verticalAlign=top;spacingLeft=4;spacingRight=4;overflow=hidden;rotatable=0;points=[[0,0.5],[1,0.5]];portConstraint=eastwest;whiteSpace=wrap;html=1;fontStyle=1" vertex="1" parent="zOF8-4KYtvd2jClDgSth-8">
          <mxGeometry y="26" width="140" height="26" as="geometry" />
        </mxCell>
        <mxCell id="zOF8-4KYtvd2jClDgSth-10" value="+ titulo" style="text;strokeColor=none;fillColor=none;align=left;verticalAlign=top;spacingLeft=4;spacingRight=4;overflow=hidden;rotatable=0;points=[[0,0.5],[1,0.5]];portConstraint=eastwest;whiteSpace=wrap;html=1;" vertex="1" parent="zOF8-4KYtvd2jClDgSth-8">
          <mxGeometry y="52" width="140" height="26" as="geometry" />
        </mxCell>
        <mxCell id="zOF8-4KYtvd2jClDgSth-11" value="+ gravidade" style="text;strokeColor=none;fillColor=none;align=left;verticalAlign=top;spacingLeft=4;spacingRight=4;overflow=hidden;rotatable=0;points=[[0,0.5],[1,0.5]];portConstraint=eastwest;whiteSpace=wrap;html=1;" vertex="1" parent="zOF8-4KYtvd2jClDgSth-8">
          <mxGeometry y="78" width="140" height="26" as="geometry" />
        </mxCell>
        <mxCell id="zOF8-4KYtvd2jClDgSth-12" style="edgeStyle=orthogonalEdgeStyle;rounded=0;orthogonalLoop=1;jettySize=auto;html=1;exitX=1;exitY=0.5;exitDx=0;exitDy=0;entryX=0.5;entryY=0;entryDx=0;entryDy=0;endArrow=none;endFill=0;startArrow=classic;startFill=1;" edge="1" parent="1" source="zOF8-4KYtvd2jClDgSth-4" target="zOF8-4KYtvd2jClDgSth-8">
          <mxGeometry relative="1" as="geometry" />
        </mxCell>
        <mxCell id="zOF8-4KYtvd2jClDgSth-13" value="Usuário" style="swimlane;fontStyle=0;childLayout=stackLayout;horizontal=1;startSize=26;fillColor=none;horizontalStack=0;resizeParent=1;resizeParentMax=0;resizeLast=0;collapsible=1;marginBottom=0;whiteSpace=wrap;html=1;" vertex="1" parent="1">
          <mxGeometry x="410" y="306" width="140" height="234" as="geometry" />
        </mxCell>
        <mxCell id="zOF8-4KYtvd2jClDgSth-14" value="+ id" style="text;strokeColor=none;fillColor=none;align=left;verticalAlign=top;spacingLeft=4;spacingRight=4;overflow=hidden;rotatable=0;points=[[0,0.5],[1,0.5]];portConstraint=eastwest;whiteSpace=wrap;html=1;fontStyle=1" vertex="1" parent="zOF8-4KYtvd2jClDgSth-13">
          <mxGeometry y="26" width="140" height="26" as="geometry" />
        </mxCell>
        <mxCell id="zOF8-4KYtvd2jClDgSth-15" value="+ nome" style="text;strokeColor=none;fillColor=none;align=left;verticalAlign=top;spacingLeft=4;spacingRight=4;overflow=hidden;rotatable=0;points=[[0,0.5],[1,0.5]];portConstraint=eastwest;whiteSpace=wrap;html=1;" vertex="1" parent="zOF8-4KYtvd2jClDgSth-13">
          <mxGeometry y="52" width="140" height="26" as="geometry" />
        </mxCell>
        <mxCell id="zOF8-4KYtvd2jClDgSth-16" value="+ email" style="text;strokeColor=none;fillColor=none;align=left;verticalAlign=top;spacingLeft=4;spacingRight=4;overflow=hidden;rotatable=0;points=[[0,0.5],[1,0.5]];portConstraint=eastwest;whiteSpace=wrap;html=1;" vertex="1" parent="zOF8-4KYtvd2jClDgSth-13">
          <mxGeometry y="78" width="140" height="26" as="geometry" />
        </mxCell>
        <mxCell id="zOF8-4KYtvd2jClDgSth-17" value="+ data_de_cadastro" style="text;strokeColor=none;fillColor=none;align=left;verticalAlign=top;spacingLeft=4;spacingRight=4;overflow=hidden;rotatable=0;points=[[0,0.5],[1,0.5]];portConstraint=eastwest;whiteSpace=wrap;html=1;" vertex="1" parent="zOF8-4KYtvd2jClDgSth-13">
          <mxGeometry y="104" width="140" height="26" as="geometry" />
        </mxCell>
        <mxCell id="zOF8-4KYtvd2jClDgSth-18" value="+ role" style="text;strokeColor=none;fillColor=none;align=left;verticalAlign=top;spacingLeft=4;spacingRight=4;overflow=hidden;rotatable=0;points=[[0,0.5],[1,0.5]];portConstraint=eastwest;whiteSpace=wrap;html=1;" vertex="1" parent="zOF8-4KYtvd2jClDgSth-13">
          <mxGeometry y="130" width="140" height="26" as="geometry" />
        </mxCell>
        <mxCell id="zOF8-4KYtvd2jClDgSth-19" value="+ cpf" style="text;strokeColor=none;fillColor=none;align=left;verticalAlign=top;spacingLeft=4;spacingRight=4;overflow=hidden;rotatable=0;points=[[0,0.5],[1,0.5]];portConstraint=eastwest;whiteSpace=wrap;html=1;" vertex="1" parent="zOF8-4KYtvd2jClDgSth-13">
          <mxGeometry y="156" width="140" height="26" as="geometry" />
        </mxCell>
        <mxCell id="zOF8-4KYtvd2jClDgSth-20" value="+ telefone" style="text;strokeColor=none;fillColor=none;align=left;verticalAlign=top;spacingLeft=4;spacingRight=4;overflow=hidden;rotatable=0;points=[[0,0.5],[1,0.5]];portConstraint=eastwest;whiteSpace=wrap;html=1;" vertex="1" parent="zOF8-4KYtvd2jClDgSth-13">
          <mxGeometry y="182" width="140" height="26" as="geometry" />
        </mxCell>
        <mxCell id="zOF8-4KYtvd2jClDgSth-21" value="+ voucher" style="text;strokeColor=none;fillColor=none;align=left;verticalAlign=top;spacingLeft=4;spacingRight=4;overflow=hidden;rotatable=0;points=[[0,0.5],[1,0.5]];portConstraint=eastwest;whiteSpace=wrap;html=1;" vertex="1" parent="zOF8-4KYtvd2jClDgSth-13">
          <mxGeometry y="208" width="140" height="26" as="geometry" />
        </mxCell>
        <mxCell id="zOF8-4KYtvd2jClDgSth-23" value="Visita" style="swimlane;fontStyle=0;childLayout=stackLayout;horizontal=1;startSize=26;fillColor=none;horizontalStack=0;resizeParent=1;resizeParentMax=0;resizeLast=0;collapsible=1;marginBottom=0;whiteSpace=wrap;html=1;" vertex="1" parent="1">
          <mxGeometry x="607" y="280" width="140" height="104" as="geometry" />
        </mxCell>
        <mxCell id="zOF8-4KYtvd2jClDgSth-24" value="+ voucher" style="text;strokeColor=none;fillColor=none;align=left;verticalAlign=top;spacingLeft=4;spacingRight=4;overflow=hidden;rotatable=0;points=[[0,0.5],[1,0.5]];portConstraint=eastwest;whiteSpace=wrap;html=1;" vertex="1" parent="zOF8-4KYtvd2jClDgSth-23">
          <mxGeometry y="26" width="140" height="26" as="geometry" />
        </mxCell>
        <mxCell id="zOF8-4KYtvd2jClDgSth-29" value="+ id_usuario" style="text;strokeColor=none;fillColor=none;align=left;verticalAlign=top;spacingLeft=4;spacingRight=4;overflow=hidden;rotatable=0;points=[[0,0.5],[1,0.5]];portConstraint=eastwest;whiteSpace=wrap;html=1;fontStyle=1" vertex="1" parent="zOF8-4KYtvd2jClDgSth-23">
          <mxGeometry y="52" width="140" height="26" as="geometry" />
        </mxCell>
        <mxCell id="zOF8-4KYtvd2jClDgSth-30" value="+ data" style="text;strokeColor=none;fillColor=none;align=left;verticalAlign=top;spacingLeft=4;spacingRight=4;overflow=hidden;rotatable=0;points=[[0,0.5],[1,0.5]];portConstraint=eastwest;whiteSpace=wrap;html=1;" vertex="1" parent="zOF8-4KYtvd2jClDgSth-23">
          <mxGeometry y="78" width="140" height="26" as="geometry" />
        </mxCell>
        <mxCell id="zOF8-4KYtvd2jClDgSth-32" style="edgeStyle=orthogonalEdgeStyle;rounded=0;orthogonalLoop=1;jettySize=auto;html=1;exitX=1;exitY=0.5;exitDx=0;exitDy=0;entryX=0;entryY=0.5;entryDx=0;entryDy=0;endArrow=classic;endFill=1;" edge="1" parent="1" source="zOF8-4KYtvd2jClDgSth-24" target="zOF8-4KYtvd2jClDgSth-3">
          <mxGeometry relative="1" as="geometry" />
        </mxCell>
        <mxCell id="zOF8-4KYtvd2jClDgSth-33" style="edgeStyle=orthogonalEdgeStyle;rounded=0;orthogonalLoop=1;jettySize=auto;html=1;exitX=1;exitY=0.5;exitDx=0;exitDy=0;entryX=0;entryY=0.5;entryDx=0;entryDy=0;endArrow=classic;endFill=1;" edge="1" parent="1" source="zOF8-4KYtvd2jClDgSth-14" target="zOF8-4KYtvd2jClDgSth-29">
          <mxGeometry relative="1" as="geometry" />
        </mxCell>
        <mxCell id="ZxdlrJxGSXLD8UGLs_Cl-1" value="Coordenadas" style="swimlane;fontStyle=0;childLayout=stackLayout;horizontal=1;startSize=26;fillColor=none;horizontalStack=0;resizeParent=1;resizeParentMax=0;resizeLast=0;collapsible=1;marginBottom=0;whiteSpace=wrap;html=1;" vertex="1" parent="1">
          <mxGeometry x="607" y="480" width="140" height="104" as="geometry" />
        </mxCell>
        <mxCell id="ZxdlrJxGSXLD8UGLs_Cl-2" value="+ id" style="text;strokeColor=none;fillColor=none;align=left;verticalAlign=top;spacingLeft=4;spacingRight=4;overflow=hidden;rotatable=0;points=[[0,0.5],[1,0.5]];portConstraint=eastwest;whiteSpace=wrap;html=1;fontStyle=1" vertex="1" parent="ZxdlrJxGSXLD8UGLs_Cl-1">
          <mxGeometry y="26" width="140" height="26" as="geometry" />
        </mxCell>
        <mxCell id="ZxdlrJxGSXLD8UGLs_Cl-3" value="+ latitude" style="text;strokeColor=none;fillColor=none;align=left;verticalAlign=top;spacingLeft=4;spacingRight=4;overflow=hidden;rotatable=0;points=[[0,0.5],[1,0.5]];portConstraint=eastwest;whiteSpace=wrap;html=1;" vertex="1" parent="ZxdlrJxGSXLD8UGLs_Cl-1">
          <mxGeometry y="52" width="140" height="26" as="geometry" />
        </mxCell>
        <mxCell id="ZxdlrJxGSXLD8UGLs_Cl-4" value="+ longitude" style="text;strokeColor=none;fillColor=none;align=left;verticalAlign=top;spacingLeft=4;spacingRight=4;overflow=hidden;rotatable=0;points=[[0,0.5],[1,0.5]];portConstraint=eastwest;whiteSpace=wrap;html=1;" vertex="1" parent="ZxdlrJxGSXLD8UGLs_Cl-1">
          <mxGeometry y="78" width="140" height="26" as="geometry" />
        </mxCell>
        <mxCell id="ZxdlrJxGSXLD8UGLs_Cl-5" style="edgeStyle=orthogonalEdgeStyle;rounded=0;orthogonalLoop=1;jettySize=auto;html=1;exitX=1;exitY=0.5;exitDx=0;exitDy=0;entryX=0;entryY=0.5;entryDx=0;entryDy=0;" edge="1" parent="1" source="ZxdlrJxGSXLD8UGLs_Cl-2" target="zOF8-4KYtvd2jClDgSth-7">
          <mxGeometry relative="1" as="geometry" />
        </mxCell>
        <mxCell id="ZxdlrJxGSXLD8UGLs_Cl-17" style="rounded=0;orthogonalLoop=1;jettySize=auto;html=1;entryX=0;entryY=0.5;entryDx=0;entryDy=0;endArrow=none;endFill=0;dashed=1;" edge="1" parent="1" source="ZxdlrJxGSXLD8UGLs_Cl-6" target="ZxdlrJxGSXLD8UGLs_Cl-10">
          <mxGeometry relative="1" as="geometry" />
        </mxCell>
        <mxCell id="ZxdlrJxGSXLD8UGLs_Cl-18" style="rounded=0;orthogonalLoop=1;jettySize=auto;html=1;entryX=0;entryY=0.5;entryDx=0;entryDy=0;endArrow=none;endFill=0;dashed=1;" edge="1" parent="1" source="ZxdlrJxGSXLD8UGLs_Cl-6" target="ZxdlrJxGSXLD8UGLs_Cl-15">
          <mxGeometry relative="1" as="geometry" />
        </mxCell>
        <mxCell id="ZxdlrJxGSXLD8UGLs_Cl-19" style="rounded=0;orthogonalLoop=1;jettySize=auto;html=1;entryX=0;entryY=0.5;entryDx=0;entryDy=0;endArrow=none;endFill=0;dashed=1;" edge="1" parent="1" source="ZxdlrJxGSXLD8UGLs_Cl-6" target="ZxdlrJxGSXLD8UGLs_Cl-11">
          <mxGeometry relative="1" as="geometry" />
        </mxCell>
        <mxCell id="ZxdlrJxGSXLD8UGLs_Cl-20" style="rounded=0;orthogonalLoop=1;jettySize=auto;html=1;entryX=0;entryY=0.5;entryDx=0;entryDy=0;endArrow=none;endFill=0;dashed=1;" edge="1" parent="1" source="ZxdlrJxGSXLD8UGLs_Cl-6" target="ZxdlrJxGSXLD8UGLs_Cl-12">
          <mxGeometry relative="1" as="geometry" />
        </mxCell>
        <mxCell id="ZxdlrJxGSXLD8UGLs_Cl-26" style="rounded=0;orthogonalLoop=1;jettySize=auto;html=1;entryX=0;entryY=0.5;entryDx=0;entryDy=0;dashed=1;endArrow=none;endFill=0;" edge="1" parent="1" source="ZxdlrJxGSXLD8UGLs_Cl-6" target="ZxdlrJxGSXLD8UGLs_Cl-25">
          <mxGeometry relative="1" as="geometry" />
        </mxCell>
        <mxCell id="ZxdlrJxGSXLD8UGLs_Cl-30" style="edgeStyle=orthogonalEdgeStyle;rounded=0;orthogonalLoop=1;jettySize=auto;html=1;entryX=0;entryY=0.5;entryDx=0;entryDy=0;dashed=1;endArrow=none;endFill=0;" edge="1" parent="1" source="ZxdlrJxGSXLD8UGLs_Cl-6" target="ZxdlrJxGSXLD8UGLs_Cl-28">
          <mxGeometry relative="1" as="geometry" />
        </mxCell>
        <mxCell id="ZxdlrJxGSXLD8UGLs_Cl-6" value="Visitante" style="shape=umlActor;verticalLabelPosition=bottom;verticalAlign=top;html=1;" vertex="1" parent="1">
          <mxGeometry x="290" y="885" width="30" height="60" as="geometry" />
        </mxCell>
        <mxCell id="ZxdlrJxGSXLD8UGLs_Cl-21" style="rounded=0;orthogonalLoop=1;jettySize=auto;html=1;entryX=1;entryY=0.5;entryDx=0;entryDy=0;endArrow=none;endFill=0;dashed=1;" edge="1" parent="1" source="ZxdlrJxGSXLD8UGLs_Cl-7" target="ZxdlrJxGSXLD8UGLs_Cl-16">
          <mxGeometry relative="1" as="geometry" />
        </mxCell>
        <mxCell id="ZxdlrJxGSXLD8UGLs_Cl-22" style="rounded=0;orthogonalLoop=1;jettySize=auto;html=1;entryX=1;entryY=0.5;entryDx=0;entryDy=0;endArrow=none;endFill=0;dashed=1;" edge="1" parent="1" source="ZxdlrJxGSXLD8UGLs_Cl-7" target="ZxdlrJxGSXLD8UGLs_Cl-12">
          <mxGeometry relative="1" as="geometry" />
        </mxCell>
        <mxCell id="ZxdlrJxGSXLD8UGLs_Cl-23" style="rounded=0;orthogonalLoop=1;jettySize=auto;html=1;entryX=1;entryY=0.5;entryDx=0;entryDy=0;endArrow=none;endFill=0;dashed=1;" edge="1" parent="1" source="ZxdlrJxGSXLD8UGLs_Cl-7" target="ZxdlrJxGSXLD8UGLs_Cl-11">
          <mxGeometry relative="1" as="geometry" />
        </mxCell>
        <mxCell id="ZxdlrJxGSXLD8UGLs_Cl-24" style="rounded=0;orthogonalLoop=1;jettySize=auto;html=1;entryX=1;entryY=0.5;entryDx=0;entryDy=0;endArrow=none;endFill=0;dashed=1;" edge="1" parent="1" source="ZxdlrJxGSXLD8UGLs_Cl-7" target="ZxdlrJxGSXLD8UGLs_Cl-15">
          <mxGeometry relative="1" as="geometry" />
        </mxCell>
        <mxCell id="ZxdlrJxGSXLD8UGLs_Cl-27" style="rounded=0;orthogonalLoop=1;jettySize=auto;html=1;entryX=1;entryY=0.5;entryDx=0;entryDy=0;startArrow=none;startFill=0;endArrow=none;endFill=0;dashed=1;" edge="1" parent="1" source="ZxdlrJxGSXLD8UGLs_Cl-7" target="ZxdlrJxGSXLD8UGLs_Cl-25">
          <mxGeometry relative="1" as="geometry" />
        </mxCell>
        <mxCell id="ZxdlrJxGSXLD8UGLs_Cl-29" style="edgeStyle=orthogonalEdgeStyle;rounded=0;orthogonalLoop=1;jettySize=auto;html=1;entryX=1;entryY=0.5;entryDx=0;entryDy=0;dashed=1;endArrow=none;endFill=0;" edge="1" parent="1" source="ZxdlrJxGSXLD8UGLs_Cl-7" target="ZxdlrJxGSXLD8UGLs_Cl-28">
          <mxGeometry relative="1" as="geometry" />
        </mxCell>
        <mxCell id="ZxdlrJxGSXLD8UGLs_Cl-7" value="Operador" style="shape=umlActor;verticalLabelPosition=bottom;verticalAlign=top;html=1;" vertex="1" parent="1">
          <mxGeometry x="1050" y="885" width="30" height="60" as="geometry" />
        </mxCell>
        <mxCell id="ZxdlrJxGSXLD8UGLs_Cl-9" value="pni-monitor" style="text;html=1;align=center;verticalAlign=middle;whiteSpace=wrap;rounded=0;fontStyle=1;fontSize=13;" vertex="1" parent="1">
          <mxGeometry x="420" y="670" width="90" height="30" as="geometry" />
        </mxCell>
        <mxCell id="ZxdlrJxGSXLD8UGLs_Cl-10" value="Registrar Usuário" style="ellipse;whiteSpace=wrap;html=1;" vertex="1" parent="1">
          <mxGeometry x="625" y="720" width="110" height="70" as="geometry" />
        </mxCell>
        <mxCell id="ZxdlrJxGSXLD8UGLs_Cl-11" value="Registrar Notificação" style="ellipse;whiteSpace=wrap;html=1;" vertex="1" parent="1">
          <mxGeometry x="625" y="1040" width="110" height="70" as="geometry" />
        </mxCell>
        <mxCell id="ZxdlrJxGSXLD8UGLs_Cl-12" value="Consultar Registros" style="ellipse;whiteSpace=wrap;html=1;" vertex="1" parent="1">
          <mxGeometry x="625" y="1120" width="110" height="70" as="geometry" />
        </mxCell>
        <mxCell id="ZxdlrJxGSXLD8UGLs_Cl-15" value="Autenticar Usuário" style="ellipse;whiteSpace=wrap;html=1;" vertex="1" parent="1">
          <mxGeometry x="625" y="960" width="110" height="70" as="geometry" />
        </mxCell>
        <mxCell id="ZxdlrJxGSXLD8UGLs_Cl-16" value="Encerrar Registros" style="ellipse;whiteSpace=wrap;html=1;" vertex="1" parent="1">
          <mxGeometry x="625" y="1200" width="110" height="70" as="geometry" />
        </mxCell>
        <mxCell id="ZxdlrJxGSXLD8UGLs_Cl-25" value="Registrar Visita" style="ellipse;whiteSpace=wrap;html=1;" vertex="1" parent="1">
          <mxGeometry x="625" y="800" width="110" height="70" as="geometry" />
        </mxCell>
        <mxCell id="ZxdlrJxGSXLD8UGLs_Cl-28" value="Consultar Visitas" style="ellipse;whiteSpace=wrap;html=1;" vertex="1" parent="1">
          <mxGeometry x="625" y="880" width="110" height="70" as="geometry" />
        </mxCell>
      </root>
    </mxGraphModel>
  </diagram>
</mxfile>
